HIERARCHY
ROOT Pelvis
{
	OFFSET 0.000000 0.941512 0.000000
	CHANNELS 6 Xposition Yposition Zposition Zrotation Yrotation Xrotation 
	JOINT Pelvis_L_Hip
	{
		OFFSET 0.000000 0.000000 0.000000
		CHANNELS 3 Zrotation Yrotation Xrotation
		JOINT L_Hip
		{
			OFFSET 0.062321 -0.080322 -0.016990
			CHANNELS 3 Zrotation Yrotation Xrotation
			JOINT L_Knee
			{
				OFFSET 0.093051 -0.381305 -0.029784
				CHANNELS 3 Zrotation Yrotation Xrotation
				JOINT L_Ankle
				{
					OFFSET -0.010371 -0.431000 -0.033614
					CHANNELS 3 Zrotation Yrotation Xrotation
					End Site #name: L_Foot
					{
						OFFSET 0.069299 -0.038670 0.119418
					}
				}
			}
		}
	}
	JOINT Pelvis_R_Hip
	{
		OFFSET 0.000000 0.000000 0.000000
		CHANNELS 3 Zrotation Yrotation Xrotation
		JOINT R_Hip
		{
			OFFSET -0.055334 -0.094904 -0.002373
			CHANNELS 3 Zrotation Yrotation Xrotation
			JOINT R_Knee
			{
				OFFSET -0.064207 -0.384370 -0.019592
				CHANNELS 3 Zrotation Yrotation Xrotation
				JOINT R_Ankle
				{
					OFFSET 0.025418 -0.419734 -0.065953
					CHANNELS 3 Zrotation Yrotation Xrotation
					End Site #name: R_Foot
					{
						OFFSET -0.057233 -0.039888 0.132134
					}
				}
			}
		}
	}
	JOINT Pelvis_Spine1
	{
		OFFSET 0.000000 0.000000 0.000000
		CHANNELS 3 Zrotation Yrotation Xrotation
		JOINT Spine1
		{
			OFFSET -0.005562 0.124093 -0.043360
			CHANNELS 3 Zrotation Yrotation Xrotation
			JOINT Spine2
			{
				OFFSET 0.012244 0.139499 0.029894
				CHANNELS 3 Zrotation Yrotation Xrotation
				JOINT Spine3
				{
					OFFSET -0.002556 0.056561 0.009225
					CHANNELS 3 Zrotation Yrotation Xrotation
					JOINT Spine3_Neck
					{
						OFFSET 0.000000 0.000000 0.000000
						CHANNELS 3 Zrotation Yrotation Xrotation
						JOINT Neck
						{
							OFFSET -0.005205 0.217920 -0.024551
							CHANNELS 3 Zrotation Yrotation Xrotation
							End Site #name: Head
							{
								OFFSET 0.002365 0.091850 0.046637
							}
						}
					}
					JOINT Spine3_L_Collar
					{
						OFFSET 0.000000 0.000000 0.000000
						CHANNELS 3 Zrotation Yrotation Xrotation
						JOINT L_Collar
						{
							OFFSET 0.072225 0.116603 -0.009480
							CHANNELS 3 Zrotation Yrotation Xrotation
							JOINT L_Shoulder
							{
								OFFSET 0.115937 -0.058643 -0.021018
								CHANNELS 3 Zrotation Yrotation Xrotation
								JOINT L_Elbow
								{
									OFFSET 0.021994 -0.254722 -0.024492
									CHANNELS 3 Zrotation Yrotation Xrotation
									End Site #name: L_Wrist
									{
										OFFSET 0.048810 -0.240214 0.103329
									}
								}
							}
						}
					}
					JOINT Spine3_R_Collar
					{
						OFFSET 0.000000 0.000000 0.000000
						CHANNELS 3 Zrotation Yrotation Xrotation
						JOINT R_Collar
						{
							OFFSET -0.073372 0.120704 -0.024611
							CHANNELS 3 Zrotation Yrotation Xrotation
							JOINT R_Shoulder
							{
								OFFSET -0.108089 -0.054969 -0.020504
								CHANNELS 3 Zrotation Yrotation Xrotation
								JOINT R_Elbow
								{
									OFFSET -0.033684 -0.260739 0.009889
									CHANNELS 3 Zrotation Yrotation Xrotation
									End Site #name: R_Wrist
									{
										OFFSET -0.067980 -0.232763 0.118463
									}
								}
							}
						}
					}
				}
			}
		}
	}
}
MOTION
Frames: 15
Frame Time: 0.041667
0.013402 0.600564 0.130243 -2.720162 1.769241 -5.265296 0.000000 0.000000 0.000000 33.496955 -8.418718 70.987683 -31.761008 -29.697704 -99.635209 90.153620 68.712434 83.862266 0.000000 0.000000 0.000000 -29.503926 8.812089 74.197176 48.997664 33.663574 -94.929636 -62.243051 -67.572663 56.979431 0.000000 0.000000 0.000000 3.188018 6.691092 -68.700092 -0.844791 -0.104384 -4.556520 0.705437 0.909447 47.866410 0.000000 0.000000 0.000000 -8.417222 0.301815 -63.320849 0.000000 0.000000 0.000000 21.417438 -5.279434 0.832724 3.434079 -0.754580 -4.390338 -0.102587 11.413353 56.669924 0.000000 0.000000 0.000000 -29.787551 -8.665239 13.041456 10.184008 0.350520 -3.342895 2.044307 -14.001817 52.676025 
0.009515 0.667215 0.124289 -1.954021 -0.660903 -8.036906 0.000000 0.000000 0.000000 28.951719 -3.300171 64.284188 -27.610132 -22.646513 -91.557916 102.767191 66.204804 99.995038 0.000000 0.000000 0.000000 -26.287561 5.770479 59.765990 43.579801 25.313925 -86.733016 -70.731543 -69.241197 63.065937 0.000000 0.000000 0.000000 5.386585 7.777675 -65.128340 -5.211507 0.626976 -2.454675 3.356666 1.409106 47.716283 0.000000 0.000000 0.000000 -5.189914 0.477327 -63.648870 0.000000 0.000000 0.000000 21.876006 -3.270383 2.416233 4.605499 -0.975404 -7.183653 -1.262595 11.653025 57.058371 0.000000 0.000000 0.000000 -29.549237 -6.901087 11.571113 11.305739 0.882508 -5.938037 -0.248370 -14.357302 54.399864 
-0.000370 0.753842 0.093366 -1.204839 -3.848620 -2.565989 0.000000 0.000000 0.000000 20.872732 1.925499 43.414811 -21.189191 -11.560639 -76.296387 74.794382 65.800326 80.959046 0.000000 0.000000 0.000000 -22.010765 3.043276 41.181894 37.924229 19.336696 -80.321356 -106.842842 -69.490608 95.425070 0.000000 0.000000 0.000000 2.672345 8.628377 -71.655403 -3.757695 1.729274 13.477548 5.508691 0.852405 33.442122 0.000000 0.000000 0.000000 -9.325309 1.264429 -53.662018 0.000000 0.000000 0.000000 24.022268 -4.095250 1.746191 3.442538 -0.736831 -5.288611 -5.238508 10.392806 52.063352 0.000000 0.000000 0.000000 -27.247366 -5.633996 10.493069 7.551244 0.152395 -1.244372 4.553999 -11.548029 44.893950 
0.004461 0.849726 0.080176 -3.800159 -3.740393 -6.196807 0.000000 0.000000 0.000000 18.110051 2.426996 37.027112 -14.435345 -5.401833 -61.796522 74.650948 63.746053 89.615284 0.000000 0.000000 0.000000 -17.391681 0.784612 35.873141 32.963762 11.114738 -63.384654 -84.272928 -71.760030 71.070896 0.000000 0.000000 0.000000 12.204869 11.232281 -65.157378 -8.687208 4.638787 24.109965 4.253400 2.490147 20.038656 0.000000 0.000000 0.000000 -8.194157 2.102311 -38.003201 0.000000 0.000000 0.000000 22.387075 -4.854179 1.058956 3.682651 -0.651563 -4.152563 -4.328328 10.351787 53.396826 0.000000 0.000000 0.000000 -31.834390 -2.002181 8.564189 12.671605 -0.733026 3.571269 5.913061 -10.298765 41.674948 
0.004021 0.922729 0.047740 -1.152005 -3.219804 -10.215712 0.000000 0.000000 0.000000 11.477213 3.844196 29.314377 -7.886260 -1.458131 -45.821540 53.921696 59.346382 90.759195 0.000000 0.000000 0.000000 -16.065908 0.236306 27.676793 24.775138 4.621517 -48.203575 -84.261123 -65.448706 86.896794 0.000000 0.000000 0.000000 8.035488 6.624809 -49.861894 -4.251532 2.089537 15.793129 1.753351 2.565073 20.023797 0.000000 0.000000 0.000000 -1.706397 1.046083 -39.495224 0.000000 0.000000 0.000000 23.158008 -6.522349 -0.230290 -0.009444 -0.335347 -4.116422 -6.556250 9.926849 51.142581 0.000000 0.000000 0.000000 -29.066711 1.027315 5.356460 11.325600 -0.459035 2.472017 7.693136 -9.995292 41.149005 
-0.001518 1.000172 0.020717 -0.387064 -3.946746 -13.637231 0.000000 0.000000 0.000000 7.585298 3.834016 22.346291 -0.123746 0.720191 -28.744796 49.786831 56.611188 106.943863 0.000000 0.000000 0.000000 -10.926315 -0.793179 19.294499 13.110338 0.059329 -30.824002 -58.978376 -49.982143 111.781592 0.000000 0.000000 0.000000 6.836434 4.346734 -37.356749 -0.411263 0.686284 11.827466 0.721996 3.750504 15.472562 0.000000 0.000000 0.000000 -4.452657 1.592969 -34.445801 0.000000 0.000000 0.000000 24.954698 -9.163152 -2.171205 -6.348743 0.274818 -3.451710 -5.575599 9.442363 49.867442 0.000000 0.000000 0.000000 -29.435137 2.266347 4.320856 12.216414 -0.472045 2.821533 7.600455 -9.640785 40.134527 
0.001184 1.085309 -0.002376 -0.115081 -4.533482 -14.705124 0.000000 0.000000 0.000000 4.240628 2.971349 14.581177 6.287614 0.310046 -10.059084 3.832508 48.617604 90.125696 0.000000 0.000000 0.000000 -7.127055 -0.988023 12.779518 2.568066 -0.906053 -15.964693 -17.574758 -42.362829 100.353893 0.000000 0.000000 0.000000 9.491698 3.830059 -32.180620 -3.971810 1.907694 14.545404 2.197502 4.363763 10.635008 0.000000 0.000000 0.000000 -4.319128 1.679606 -29.212060 0.000000 0.000000 0.000000 25.125353 -9.285882 -2.228304 -7.881190 -0.184550 -6.973682 -5.576208 9.999436 52.637958 0.000000 0.000000 0.000000 -31.654139 3.702735 3.441183 13.843277 0.425020 -0.403662 9.587265 -10.149299 42.448100 
0.000650 1.121056 -0.010362 -0.513113 -4.619755 -14.024382 0.000000 0.000000 0.000000 4.134662 2.207785 11.075854 6.936300 -0.310061 -2.825600 -11.789761 40.979790 79.424770 0.000000 0.000000 0.000000 -4.882738 -0.935996 9.417871 -1.554783 -0.501434 -10.295437 -6.398991 -38.998357 95.415058 0.000000 0.000000 0.000000 10.569139 4.025320 -32.648594 -5.325245 2.419449 15.538877 2.979550 4.499109 10.841744 0.000000 0.000000 0.000000 -4.381540 1.729011 -27.893241 0.000000 0.000000 0.000000 23.565595 -10.216721 -3.140538 -5.267886 -0.397332 -7.592624 -6.528194 10.419894 54.059311 0.000000 0.000000 0.000000 -31.566030 4.259631 2.870486 12.533036 0.765178 -1.981436 10.556170 -10.380488 43.331177 
0.001002 1.132421 -0.012573 -0.737090 -4.730024 -14.470159 0.000000 0.000000 0.000000 5.169947 1.816872 9.901729 5.540735 -0.507607 0.916721 -11.428038 40.969475 79.002780 0.000000 0.000000 0.000000 -3.802665 -0.967369 8.645498 -3.710258 -0.189149 -8.249148 -10.825206 -40.466087 103.178907 0.000000 0.000000 0.000000 11.470315 3.668356 -30.340485 -6.023152 2.388205 13.361929 3.600957 5.123648 11.455187 0.000000 0.000000 0.000000 -6.996901 2.320441 -29.194571 0.000000 0.000000 0.000000 32.682622 -13.183006 -5.029414 -12.909369 -0.068621 -7.868268 -8.115019 9.994530 51.966852 0.000000 0.000000 0.000000 -38.966982 6.663774 1.578020 17.669198 0.948756 -1.821049 12.494317 -10.017836 42.791048 
0.001476 1.150275 -0.018171 -0.485863 -4.931916 -13.488234 0.000000 0.000000 0.000000 5.722568 1.449040 8.484464 4.017064 -0.320080 -0.029530 -1.777804 45.452664 81.904833 0.000000 0.000000 0.000000 -3.572063 -0.735688 6.648597 -5.254595 -0.163720 -9.260275 -13.324914 -41.022643 106.505625 0.000000 0.000000 0.000000 11.643278 3.672893 -30.307254 -6.241902 2.335649 12.315036 4.132463 5.133345 14.372502 0.000000 0.000000 0.000000 -10.400929 2.821569 -33.160781 0.000000 0.000000 0.000000 31.991654 -13.207247 -5.151063 -9.682145 -0.297670 -8.616868 -9.008789 9.656763 50.235613 0.000000 0.000000 0.000000 -40.674928 9.127611 -0.888374 16.030163 0.745703 -1.583039 12.113565 -9.647887 41.572791 
0.003842 1.147941 -0.019896 -0.035124 -4.856364 -12.483348 0.000000 0.000000 0.000000 6.404216 1.266945 8.036590 3.446754 -0.108875 -3.064639 -2.812097 45.229044 82.382392 0.000000 0.000000 0.000000 -4.820381 -0.421490 4.962350 -5.357729 -0.291526 -10.613750 -9.765587 -40.162771 108.977711 0.000000 0.000000 0.000000 11.414700 3.585081 -30.061078 -6.579398 2.204549 10.358991 3.790425 4.847130 17.795363 0.000000 0.000000 0.000000 -8.948298 2.175771 -38.832548 0.000000 0.000000 0.000000 31.181482 -12.506334 -4.598226 -5.916454 -0.347723 -8.041633 -7.202385 8.872069 47.149844 0.000000 0.000000 0.000000 -39.698953 8.799873 -0.618532 12.124801 1.169952 -4.272647 13.098634 -9.451540 41.135435 
0.005993 1.128216 -0.019187 -0.200753 -4.872700 -11.073024 0.000000 0.000000 0.000000 8.269222 0.932439 7.518797 2.365353 0.095036 -6.223355 -3.626856 44.953103 82.348690 0.000000 0.000000 0.000000 -5.876267 -0.154839 3.378750 -4.245736 -0.523067 -12.451242 -3.055672 -38.456787 105.871168 0.000000 0.000000 0.000000 12.314525 3.659367 -30.182499 -7.227382 2.195578 8.865136 3.939846 4.974548 20.880755 0.000000 0.000000 0.000000 -8.995838 1.756674 -45.145861 0.000000 0.000000 0.000000 31.885794 -11.457999 -3.520357 -3.813495 -0.627779 -9.806323 -7.809150 8.656309 46.061242 0.000000 0.000000 0.000000 -39.601905 7.269640 0.911736 9.426621 1.572317 -7.121012 12.419638 -9.143735 40.009226 
0.008314 1.075689 -0.009764 -0.531593 -5.097326 -9.236077 0.000000 0.000000 0.000000 11.033401 0.708674 8.306294 0.435446 0.345280 -12.509115 7.791660 49.481656 88.369984 0.000000 0.000000 0.000000 -7.062939 -0.030252 3.218194 -2.242425 -1.087399 -19.595841 -30.063900 -43.084910 120.850797 0.000000 0.000000 0.000000 12.318005 3.963663 -31.728219 -6.371003 1.688839 6.182444 3.085373 4.563288 27.197875 0.000000 0.000000 0.000000 -7.209706 1.087511 -55.072023 0.000000 0.000000 0.000000 30.428634 -9.255936 -1.697591 2.643325 -0.981680 -11.869325 -11.380863 8.807731 45.911840 0.000000 0.000000 0.000000 -37.739368 4.881075 3.199481 4.154978 1.848603 -11.879263 10.971782 -9.077989 39.149332 
0.011788 0.987558 0.013596 -0.205346 -5.553285 -6.701586 0.000000 0.000000 0.000000 13.076489 1.350382 14.877848 -2.757104 0.475674 -31.366713 64.705007 56.536412 118.521728 0.000000 0.000000 0.000000 -10.264351 -0.064385 8.205742 6.587574 -0.460961 -38.736646 -91.780123 -43.258958 137.067397 0.000000 0.000000 0.000000 10.449027 4.869626 -37.123822 -4.012391 1.214342 6.736578 1.664687 3.927157 30.641807 0.000000 0.000000 0.000000 -4.952878 1.070292 -58.126462 0.000000 0.000000 0.000000 26.519197 -7.155673 -0.463616 9.894061 -1.167415 -12.319160 -12.577323 9.945798 48.938553 0.000000 0.000000 0.000000 -32.763900 4.350288 3.205326 -3.130214 0.963824 -10.872935 8.862657 -9.213008 38.563954 
0.016173 0.928870 0.031939 1.766270 -5.011655 -6.418400 0.000000 0.000000 0.000000 9.685064 3.030280 20.801139 0.812543 1.762322 -43.388156 55.469770 55.418302 121.895567 0.000000 0.000000 0.000000 -13.905841 0.187186 15.209592 9.346180 0.681135 -50.713266 -82.980972 -49.261668 124.489351 0.000000 0.000000 0.000000 4.897936 4.197619 -37.791815 -1.689595 0.967828 10.741479 1.534887 4.411382 23.179993 0.000000 0.000000 0.000000 2.753456 1.017557 -54.439913 0.000000 0.000000 0.000000 29.395198 -10.272338 -2.883354 1.922124 -0.489059 -3.816020 -2.730830 8.443616 44.989006 0.000000 0.000000 0.000000 -27.919661 6.154978 0.767333 -1.988423 0.020329 -0.340663 -0.053001 -9.401067 35.625466 
